<svg xmlns="http://www.w3.org/2000/svg" xmlns:xlink="http://www.w3.org/1999/xlink" width="128" zoomAndPan="magnify" viewBox="0 0 96 30.000001" height="40" preserveAspectRatio="xMidYMid meet" version="1.0"><defs><g/><clipPath id="36e44a1c3e"><path d="M 62 0 L 94.449219 0 L 94.449219 25 L 62 25 Z M 62 0 " clip-rule="nonzero"/></clipPath><clipPath id="afe1d38605"><path d="M 64.074219 24.9375 L 90.863281 24.9375 L 90.863281 27.253906 L 64.074219 27.253906 Z M 64.074219 24.9375 " clip-rule="nonzero"/></clipPath><clipPath id="dbba69104e"><path d="M 5.125 24.9375 L 64.386719 24.9375 L 64.386719 27.367188 L 5.125 27.367188 Z M 5.125 24.9375 " clip-rule="nonzero"/></clipPath><clipPath id="b5bdf4a87d"><path d="M 5.171875 24.9375 L 64.339844 24.9375 L 64.339844 27.253906 L 5.171875 27.253906 Z M 5.171875 24.9375 " clip-rule="nonzero"/></clipPath><clipPath id="21ec9596ec"><path d="M 59.613281 24.167969 L 91.546875 24.167969 L 91.546875 28.089844 L 59.613281 28.089844 Z M 59.613281 24.167969 " clip-rule="nonzero"/></clipPath><clipPath id="8248736ce3"><path d="M 4.453125 24.167969 L 65.417969 24.167969 L 65.417969 28.089844 L 4.453125 28.089844 Z M 4.453125 24.167969 " clip-rule="nonzero"/></clipPath></defs><g fill="#737373" fill-opacity="1"><g transform="translate(63.917503, 20.615998)"><g><path d="M 1.5625 0 L 1.5625 -17.96875 L 13.453125 -17.96875 L 13.453125 -14.828125 L 5.359375 -14.828125 L 5.359375 -10.546875 L 12.671875 -10.546875 L 12.671875 -7.421875 L 5.359375 -7.421875 L 5.359375 0 Z M 1.5625 0 "/></g></g></g><g fill="#737373" fill-opacity="1"><g transform="translate(78.363904, 20.615998)"><g><path d="M 1.484375 0 L 1.484375 -13.46875 L 5.234375 -13.46875 L 5.234375 0 Z M 3.359375 -15.21875 C 2.804688 -15.21875 2.332031 -15.398438 1.9375 -15.765625 C 1.539062 -16.140625 1.34375 -16.585938 1.34375 -17.109375 C 1.34375 -17.628906 1.539062 -18.070312 1.9375 -18.4375 C 2.332031 -18.8125 2.804688 -19 3.359375 -19 C 3.921875 -19 4.398438 -18.8125 4.796875 -18.4375 C 5.191406 -18.070312 5.390625 -17.628906 5.390625 -17.109375 C 5.390625 -16.585938 5.191406 -16.140625 4.796875 -15.765625 C 4.398438 -15.398438 3.921875 -15.21875 3.359375 -15.21875 Z M 3.359375 -15.21875 "/></g></g></g><g fill="#737373" fill-opacity="1"><g transform="translate(85.082753, 20.615998)"><g><path d="M 3.671875 0.234375 C 3.097656 0.234375 2.601562 0.03125 2.1875 -0.375 C 1.769531 -0.789062 1.5625 -1.289062 1.5625 -1.875 C 1.5625 -2.445312 1.769531 -2.9375 2.1875 -3.34375 C 2.601562 -3.757812 3.097656 -3.96875 3.671875 -3.96875 C 4.234375 -3.96875 4.722656 -3.757812 5.140625 -3.34375 C 5.554688 -2.9375 5.769531 -2.445312 5.78125 -1.875 C 5.769531 -1.289062 5.554688 -0.789062 5.140625 -0.375 C 4.722656 0.03125 4.234375 0.234375 3.671875 0.234375 Z M 3.671875 0.234375 "/></g></g></g><path fill="#000000" d="M 6.195312 20.40625 L 6.195312 2.941406 L 13.089844 2.941406 C 14.414062 2.941406 15.539062 3.195312 16.46875 3.699219 C 17.402344 4.199219 18.113281 4.898438 18.605469 5.789062 C 19.097656 6.675781 19.34375 7.699219 19.34375 8.855469 C 19.34375 10.019531 19.089844 11.042969 18.589844 11.925781 C 18.09375 12.808594 17.371094 13.5 16.425781 14 C 15.476562 14.496094 14.332031 14.746094 12.992188 14.746094 L 9.890625 14.746094 L 9.890625 20.40625 Z M 9.890625 11.785156 L 12.394531 11.785156 C 13.449219 11.785156 14.238281 11.515625 14.757812 10.972656 C 15.28125 10.425781 15.542969 9.722656 15.542969 8.855469 C 15.542969 7.988281 15.28125 7.289062 14.757812 6.761719 C 14.238281 6.226562 13.445312 5.960938 12.378906 5.960938 L 9.890625 5.960938 Z M 9.890625 11.785156 " fill-opacity="1" fill-rule="nonzero"/><path fill="#000000" d="M 27.648438 20.660156 C 26.304688 20.660156 25.148438 20.386719 24.171875 19.839844 C 23.203125 19.289062 22.457031 18.507812 21.933594 17.503906 C 21.410156 16.492188 21.152344 15.296875 21.152344 13.917969 C 21.152344 12.570312 21.410156 11.390625 21.933594 10.375 C 22.457031 9.351562 23.195312 8.558594 24.144531 7.988281 C 25.101562 7.417969 26.222656 7.132812 27.503906 7.132812 C 28.65625 7.132812 29.699219 7.378906 30.628906 7.871094 C 31.558594 8.359375 32.296875 9.097656 32.839844 10.082031 C 33.386719 11.066406 33.660156 12.300781 33.660156 13.785156 L 33.660156 14.785156 L 24.738281 14.785156 L 24.738281 14.792969 C 24.738281 15.773438 25.003906 16.542969 25.539062 17.109375 C 26.078125 17.671875 26.800781 17.949219 27.710938 17.949219 C 28.316406 17.949219 28.839844 17.824219 29.28125 17.566406 C 29.726562 17.308594 30.042969 16.929688 30.226562 16.433594 L 33.585938 16.65625 C 33.328125 17.867188 32.679688 18.839844 31.640625 19.570312 C 30.601562 20.296875 29.269531 20.660156 27.648438 20.660156 Z M 24.738281 12.53125 L 30.242188 12.53125 C 30.234375 11.753906 29.984375 11.113281 29.488281 10.609375 C 28.996094 10.101562 28.355469 9.847656 27.566406 9.847656 C 26.753906 9.847656 26.09375 10.109375 25.574219 10.636719 C 25.058594 11.15625 24.78125 11.785156 24.738281 12.53125 Z M 24.738281 12.53125 " fill-opacity="1" fill-rule="nonzero"/><path fill="#000000" d="M 42 20.660156 C 40.65625 20.660156 39.496094 20.386719 38.523438 19.839844 C 37.554688 19.289062 36.804688 18.507812 36.28125 17.503906 C 35.761719 16.492188 35.503906 15.296875 35.503906 13.917969 C 35.503906 12.570312 35.761719 11.390625 36.28125 10.375 C 36.804688 9.351562 37.542969 8.558594 38.496094 7.988281 C 39.449219 7.417969 40.570312 7.132812 41.855469 7.132812 C 43.007812 7.132812 44.046875 7.378906 44.976562 7.871094 C 45.910156 8.359375 46.648438 9.097656 47.191406 10.082031 C 47.738281 11.066406 48.011719 12.300781 48.011719 13.785156 L 48.011719 14.785156 L 39.089844 14.785156 L 39.089844 14.792969 C 39.089844 15.773438 39.355469 16.542969 39.890625 17.109375 C 40.425781 17.671875 41.152344 17.949219 42.0625 17.949219 C 42.667969 17.949219 43.191406 17.824219 43.632812 17.566406 C 44.078125 17.308594 44.394531 16.929688 44.578125 16.433594 L 47.933594 16.65625 C 47.675781 17.867188 47.027344 18.839844 45.992188 19.570312 C 44.953125 20.296875 43.621094 20.660156 42 20.660156 Z M 39.089844 12.53125 L 44.589844 12.53125 C 44.585938 11.753906 44.335938 11.113281 43.839844 10.609375 C 43.347656 10.101562 42.707031 9.847656 41.914062 9.847656 C 41.105469 9.847656 40.441406 10.109375 39.921875 10.636719 C 39.40625 11.15625 39.128906 11.785156 39.089844 12.53125 Z M 39.089844 12.53125 " fill-opacity="1" fill-rule="nonzero"/><path fill="#000000" d="M 50.378906 20.40625 L 50.378906 2.941406 L 54.011719 2.941406 L 54.011719 12.277344 L 54.210938 12.277344 L 58.402344 7.304688 L 62.574219 7.304688 L 57.714844 12.980469 L 62.824219 20.40625 L 58.570312 20.40625 L 54.992188 15.125 L 54.011719 16.242188 L 54.011719 20.40625 Z M 50.378906 20.40625 " fill-opacity="1" fill-rule="nonzero"/><g clip-path="url(#36e44a1c3e)"><path stroke-linecap="butt" transform="matrix(0.330968, 0, 0, 0.330968, 64.323703, -4.747921)" fill="none" stroke-linejoin="miter" d="M 4.592734 76.001864 L 4.592734 23.232854 L 39.516362 23.232854 L 39.516362 32.427007 L 15.746106 32.427007 L 15.746106 44.996677 L 37.20307 44.996677 L 37.20307 54.19083 L 15.746106 54.19083 L 15.746106 76.001864 Z M 46.810313 76.001864 L 46.810313 36.428057 L 57.786648 36.428057 L 57.786648 76.001864 Z M 52.322086 31.317571 C 50.705142 31.317571 49.324248 30.786458 48.1558 29.688825 C 46.987351 28.591192 46.397225 27.281114 46.397225 25.75859 C 46.397225 24.224264 46.987351 22.925989 48.1558 21.840158 C 49.324248 20.76613 50.705142 20.211412 52.322086 20.211412 C 53.962635 20.211412 55.355331 20.76613 56.511977 21.840158 C 57.680425 22.925989 58.270551 24.224264 58.270551 25.75859 C 58.270551 27.281114 57.680425 28.591192 56.511977 29.688825 C 55.355331 30.786458 53.962635 31.317571 52.322086 31.317571 Z M 72.952874 76.674607 C 71.253312 76.674607 69.789801 76.072679 68.574142 74.868823 C 67.358484 73.664967 66.756556 72.201456 66.768358 70.490093 C 66.756556 68.802334 67.358484 67.362428 68.574142 66.170375 C 69.789801 64.966519 71.253312 64.364592 72.952874 64.364592 C 74.605225 64.364592 76.045131 64.966519 77.272592 66.170375 C 78.500053 67.362428 79.125586 68.802334 79.149191 70.490093 C 79.125586 72.201456 78.500053 73.664967 77.272592 74.868823 C 76.045131 76.072679 74.605225 76.674607 72.952874 76.674607 Z M 72.952874 76.674607 " stroke="#737373" stroke-width="1.95" stroke-opacity="1" stroke-miterlimit="4"/></g><g clip-path="url(#afe1d38605)"><path stroke-linecap="butt" transform="matrix(0.330968, 0, 0, 0.330968, 64.075257, 24.936798)" fill="none" stroke-linejoin="miter" d="M -0.00313632 0.00212227 L 81.068307 0.00212227 L 81.068307 7.33148 L -0.00313632 7.33148 Z M -0.00313632 0.00212227 " stroke="#737373" stroke-width="2" stroke-opacity="1" stroke-miterlimit="4"/></g><g clip-path="url(#dbba69104e)"><path fill="#000000" d="M 5.125 24.9375 L 64.382812 24.9375 L 64.382812 27.367188 L 5.125 27.367188 Z M 5.125 24.9375 " fill-opacity="1" fill-rule="nonzero"/></g><g clip-path="url(#b5bdf4a87d)"><path stroke-linecap="butt" transform="matrix(0.330968, 0, 0, 0.330968, 5.17095, 24.936798)" fill="none" stroke-linejoin="miter" d="M 0.00279479 0.00212227 L 178.775418 0.00212227 L 178.775418 7.33148 L 0.00279479 7.33148 Z M 0.00279479 0.00212227 " stroke="#000000" stroke-width="2" stroke-opacity="1" stroke-miterlimit="4"/></g><g clip-path="url(#21ec9596ec)"><path fill="#737373" d="M 59.613281 24.167969 L 91.550781 24.167969 L 91.550781 28.089844 L 59.613281 28.089844 Z M 59.613281 24.167969 " fill-opacity="1" fill-rule="nonzero"/></g><g clip-path="url(#8248736ce3)"><path fill="#000000" d="M 4.453125 24.167969 L 65.414062 24.167969 L 65.414062 28.089844 L 4.453125 28.089844 Z M 4.453125 24.167969 " fill-opacity="1" fill-rule="nonzero"/></g></svg>