<svg xmlns="http://www.w3.org/2000/svg" xmlns:xlink="http://www.w3.org/1999/xlink" width="48" zoomAndPan="magnify" viewBox="0 0 36 36.000001" height="48" preserveAspectRatio="xMidYMid meet" version="1.0"><defs><g/><clipPath id="ad69d57f09"><path d="M 0.488281 0.335938 L 35.511719 0.335938 L 35.511719 35.027344 L 0.488281 35.027344 Z M 0.488281 0.335938 " clip-rule="nonzero"/></clipPath><clipPath id="f57bad801c"><path d="M 5.59375 0.335938 L 30.40625 0.335938 C 31.761719 0.335938 33.058594 0.875 34.015625 1.832031 C 34.976562 2.792969 35.511719 4.089844 35.511719 5.445312 L 35.511719 29.917969 C 35.511719 31.273438 34.976562 32.574219 34.015625 33.53125 C 33.058594 34.488281 31.761719 35.027344 30.40625 35.027344 L 5.59375 35.027344 C 4.238281 35.027344 2.941406 34.488281 1.984375 33.53125 C 1.023438 32.574219 0.488281 31.273438 0.488281 29.917969 L 0.488281 5.445312 C 0.488281 4.089844 1.023438 2.792969 1.984375 1.832031 C 2.941406 0.875 4.238281 0.335938 5.59375 0.335938 Z M 5.59375 0.335938 " clip-rule="nonzero"/></clipPath><clipPath id="5be302e71c"><path d="M 0.488281 0.335938 L 35.511719 0.335938 L 35.511719 35.027344 L 0.488281 35.027344 Z M 0.488281 0.335938 " clip-rule="nonzero"/></clipPath><clipPath id="b4f2b9afe4"><path d="M 5.597656 0.335938 L 30.402344 0.335938 C 31.757812 0.335938 33.058594 0.875 34.015625 1.832031 C 34.972656 2.792969 35.511719 4.089844 35.511719 5.445312 L 35.511719 29.914062 C 35.511719 31.269531 34.972656 32.570312 34.015625 33.527344 C 33.058594 34.484375 31.757812 35.023438 30.402344 35.023438 L 5.597656 35.023438 C 4.242188 35.023438 2.941406 34.484375 1.984375 33.527344 C 1.027344 32.570312 0.488281 31.269531 0.488281 29.914062 L 0.488281 5.445312 C 0.488281 4.089844 1.027344 2.792969 1.984375 1.832031 C 2.941406 0.875 4.242188 0.335938 5.597656 0.335938 Z M 5.597656 0.335938 " clip-rule="nonzero"/></clipPath></defs><g clip-path="url(#ad69d57f09)"><g clip-path="url(#f57bad801c)"><path fill="#ffffff" d="M 0.488281 0.335938 L 35.445312 0.335938 L 35.445312 35.027344 L 0.488281 35.027344 Z M 0.488281 0.335938 " fill-opacity="1" fill-rule="nonzero"/></g></g><g clip-path="url(#5be302e71c)"><g clip-path="url(#b4f2b9afe4)"><path stroke-linecap="butt" transform="matrix(0.72973, 0, 0, 0.72973, 0.48863, 0.337815)" fill="none" stroke-linejoin="miter" d="M 7.001257 -0.00257336 L 40.992864 -0.00257336 C 42.850359 -0.00257336 44.632911 0.736142 45.944398 2.047629 C 47.255885 3.364469 47.9946 5.141668 47.9946 6.999162 L 47.9946 40.530411 C 47.9946 42.387905 47.255885 44.170457 45.944398 45.481944 C 44.632911 46.793431 42.850359 47.532146 40.992864 47.532146 L 7.001257 47.532146 C 5.143763 47.532146 3.361211 46.793431 2.049724 45.481944 C 0.738237 44.170457 -0.00047841 42.387905 -0.00047841 40.530411 L -0.00047841 6.999162 C -0.00047841 5.141668 0.738237 3.364469 2.049724 2.047629 C 3.361211 0.736142 5.143763 -0.00257336 7.001257 -0.00257336 Z M 7.001257 -0.00257336 " stroke="#000000" stroke-width="2" stroke-opacity="1" stroke-miterlimit="4"/></g></g><g fill="#000000" fill-opacity="1"><g transform="translate(5.241131, 21.695935)"><g><path d="M 1.25 0 L 1.25 -14.3125 L 6.890625 -14.3125 C 7.972656 -14.3125 8.894531 -14.101562 9.65625 -13.6875 C 10.425781 -13.269531 11.007812 -12.695312 11.40625 -11.96875 C 11.8125 -11.25 12.015625 -10.410156 12.015625 -9.453125 C 12.015625 -8.503906 11.804688 -7.664062 11.390625 -6.9375 C 10.984375 -6.21875 10.390625 -5.65625 9.609375 -5.25 C 8.835938 -4.84375 7.90625 -4.640625 6.8125 -4.640625 L 4.265625 -4.640625 L 4.265625 0 Z M 4.265625 -7.0625 L 6.328125 -7.0625 C 7.191406 -7.0625 7.835938 -7.28125 8.265625 -7.71875 C 8.691406 -8.164062 8.90625 -8.742188 8.90625 -9.453125 C 8.90625 -10.171875 8.691406 -10.742188 8.265625 -11.171875 C 7.835938 -11.609375 7.1875 -11.828125 6.3125 -11.828125 L 4.265625 -11.828125 Z M 4.265625 -7.0625 "/></g></g></g><g fill="#737373" fill-opacity="1"><g transform="translate(18.291891, 21.695935)"><g><path d="M 1.25 0 L 1.25 -14.3125 L 10.71875 -14.3125 L 10.71875 -11.8125 L 4.265625 -11.8125 L 4.265625 -8.40625 L 10.09375 -8.40625 L 10.09375 -5.90625 L 4.265625 -5.90625 L 4.265625 0 Z M 1.25 0 "/></g></g></g><path stroke-linecap="butt" transform="matrix(0.72973, 0, 0, 0.72973, 6.061621, 25.565978)" fill="none" stroke-linejoin="miter" d="M 0.00120448 2.002613 L 24.69999 2.002613 " stroke="#000000" stroke-width="4" stroke-opacity="1" stroke-miterlimit="4"/><path stroke-linecap="butt" transform="matrix(0.72973, 0, 0, 0.72973, 19.371891, 25.565978)" fill="none" stroke-linejoin="miter" d="M -0.00109272 2.002613 L 12.921072 2.002613 " stroke="#737373" stroke-width="4" stroke-opacity="1" stroke-miterlimit="4"/></svg>