<?xml version="1.0" standalone="no"?>
<!DOCTYPE svg PUBLIC "-//W3C//DTD SVG 20010904//EN"
 "http://www.w3.org/TR/2001/REC-SVG-20010904/DTD/svg10.dtd">
<svg version="1.0" xmlns="http://www.w3.org/2000/svg"
 width="300.000000pt" height="300.000000pt" viewBox="0 0 300.000000 300.000000"
 preserveAspectRatio="xMidYMid meet">
<metadata>
Created by potrace 1.10, written by Peter Selinger 2001-2011
</metadata>
<g transform="translate(0.000000,300.000000) scale(0.100000,-0.100000)"
fill="#000000" stroke="none">
<path d="M591 1919 c-110 -11 -248 -86 -215 -119 6 -6 21 -2 46 15 140 95 343
82 468 -31 59 -53 95 -109 118 -184 12 -41 26 -66 36 -68 44 -9 1 130 -69 222
-92 123 -224 179 -384 165z"/>
<path d="M521 1802 c-59 -23 -140 -98 -171 -158 -21 -42 -25 -63 -25 -144 0
-86 3 -100 29 -148 76 -136 230 -202 381 -161 52 14 122 61 162 110 34 43 68
131 59 154 -9 25 -33 6 -45 -36 -23 -75 -73 -133 -151 -175 -52 -28 -181 -26
-236 3 -67 36 -101 70 -133 135 -43 84 -43 152 0 236 53 107 133 157 249 156
88 0 156 -29 209 -90 30 -34 41 -53 70 -126 12 -32 41 -38 41 -8 0 10 -9 44
-20 74 -23 61 -89 130 -161 167 -60 31 -194 37 -258 11z"/>
<path d="M277 1712 c-39 -60 -57 -125 -57 -211 0 -90 18 -153 67 -229 45 -71
93 -114 172 -154 62 -32 70 -33 180 -33 101 0 123 3 169 24 36 16 52 29 52 42
0 22 -22 24 -53 5 -38 -24 -126 -39 -198 -34 -94 7 -181 50 -248 123 -70 77
-95 146 -96 260 0 83 3 96 33 158 30 61 34 87 13 87 -5 0 -20 -17 -34 -38z"/>
<path d="M2210 1545 l0 -205 25 0 25 0 0 205 0 205 -25 0 -25 0 0 -205z"/>
<path d="M2577 1729 c-21 -12 -47 -61 -47 -89 0 -15 -6 -20 -25 -20 -20 0 -25
-5 -25 -25 0 -20 5 -25 25 -25 l25 0 0 -115 0 -115 25 0 25 0 0 115 0 115 45
0 c42 0 45 2 45 26 0 26 -2 26 -45 22 l-45 -6 0 33 c0 42 21 59 65 52 32 -5
35 -4 35 19 0 22 -4 24 -42 24 -24 0 -51 -5 -61 -11z"/>
<path d="M2717 1734 c-14 -15 -6 -43 14 -49 25 -8 42 6 37 31 -3 19 -38 31
-51 18z"/>
<path d="M1346 1620 c-15 -5 -37 -17 -47 -26 -18 -16 -19 -16 -19 4 0 16 -6
22 -22 22 l-23 0 2 -202 c2 -196 3 -203 23 -206 19 -3 20 2 20 84 l0 87 24
-22 c51 -48 147 -32 186 31 24 40 27 125 6 167 -27 51 -93 78 -150 61z m69
-40 c15 -6 32 -24 40 -45 40 -94 -14 -177 -103 -160 -83 15 -98 158 -21 201
29 16 49 17 84 4z"/>
<path d="M1663 1618 c-134 -28 -136 -242 -2 -278 49 -14 104 -4 135 24 39 34
17 50 -34 25 -30 -15 -52 -19 -77 -15 -37 7 -75 46 -75 77 0 17 9 19 111 19
l112 0 -6 46 c-9 80 -73 120 -164 102z m87 -43 c17 -9 30 -19 30 -23 0 -4 3
-17 6 -29 6 -23 5 -23 -85 -23 -80 0 -91 2 -91 18 0 22 9 34 40 55 30 21 62
22 100 2z"/>
<path d="M2005 1622 c-45 -8 -76 -26 -94 -56 -77 -126 18 -264 157 -226 45 12
75 39 63 58 -6 10 -16 8 -45 -9 -28 -16 -46 -20 -74 -16 -41 7 -82 46 -82 78
0 18 8 19 110 19 l110 0 0 30 c0 34 -20 79 -44 99 -19 16 -74 28 -101 23z m79
-63 c45 -53 37 -59 -65 -59 l-91 0 7 27 c4 16 7 28 8 29 1 0 13 8 27 17 40 27
84 22 114 -14z"/>
<path d="M2327 1562 l-58 -59 63 -81 c52 -67 68 -81 91 -82 16 0 27 4 25 10
-1 5 -32 41 -67 81 l-65 72 65 58 c63 58 64 58 34 59 -24 0 -43 -12 -88 -58z"/>
<path d="M2714 1480 l1 -140 28 0 27 0 0 140 0 140 -29 0 -28 0 1 -140z"/>
<path d="M1015 1423 c-10 -55 -37 -111 -79 -166 -35 -46 -39 -67 -12 -67 34 0
122 150 133 225 5 41 4 45 -15 45 -15 0 -21 -9 -27 -37z"/>
</g>
</svg>
